<svg xmlns="http://www.w3.org/2000/svg" version="1.1" xmlnsXlink="http://www.w3.org/1999/xlink" xmlnsSvgjs="http://svgjs.dev/svgjs" width="1000" height="262" viewBox="0 0 1000 262"><g transform="matrix(1,0,0,1,-0.6060606060606233,0.6156347006957219)"><svg viewBox="0 0 396 104" data-background-color="#883d1a" preserveAspectRatio="xMidYMid meet" height="262" width="1000" xmlns="http://www.w3.org/2000/svg" xmlnsXlink="http://www.w3.org/1999/xlink"><g id="tight-bounds" transform="matrix(1,0,0,1,0.2400000000000091,-0.24437407966547653)"><svg viewBox="0 0 395.52 104.48874815933095" height="104.48874815933095" width="395.52"><g><svg viewBox="0 0 395.52 104.48874815933095" height="104.48874815933095" width="395.52"><g><svg viewBox="0 0 611.7501478005858 161.6125787064343" height="104.48874815933095" width="395.52"><g transform="matrix(1,0,0,1,216.23014780058574,22.335747129471024)"><svg viewBox="0 0 395.52 116.94108444749226" height="116.94108444749226" width="395.52"><g><svg viewBox="0 0 395.52 116.94108444749226" height="116.94108444749226" width="395.52"><g><svg viewBox="0 0 395.52 77.66811881188117" height="77.66811881188117" width="395.52"><g transform="matrix(1,0,0,1,0,0)"><svg width="395.52" viewBox="3.4 -36 242.38 47.6" height="77.66811881188117" data-palette-color="#ffffff"><path d="M14 0L3.4 0 3.4-36 12.4-36 24.7-15.25 20.35-15.2 32.4-36 41.4-36 41.4 0 30.8 0 30.8-21.15 32.95-20.6 24.6-6.2 20.2-6.2 11.8-20.3 14-20.9 14 0ZM61.6 11.6L50.8 11.6 50.8 11 58-5.8 65.2-27.4 76-27.4 76-26.8 61.6 11.6ZM61.2-7.6L55.6 3.6 44.8-26.8 44.8-27.4 56.2-27.4 61.2-7.6ZM90 0L79.4 0 79.4-36 88.4-36 100.7-15.25 96.34-15.2 108.4-36 117.4-36 117.4 0 106.8 0 106.8-21.15 108.95-20.6 100.59-6.2 96.2-6.2 87.8-20.3 90-20.9 90 0ZM122.79-13.8L122.79-13.8Q122.79-18.8 124.69-21.98 126.59-25.15 129.94-26.68 133.29-28.2 137.59-28.2L137.59-28.2Q141.89-28.2 145.24-26.68 148.59-25.15 150.49-21.98 152.39-18.8 152.39-13.8L152.39-13.8Q152.39-8.8 150.49-5.63 148.59-2.45 145.24-0.93 141.89 0.6 137.59 0.6L137.59 0.6Q133.29 0.6 129.94-0.93 126.59-2.45 124.69-5.63 122.79-8.8 122.79-13.8ZM133.59-13.8L133.59-13.8Q133.59-10.35 134.54-8.58 135.49-6.8 137.59-6.8L137.59-6.8Q139.69-6.8 140.64-8.58 141.59-10.35 141.59-13.8L141.59-13.8Q141.59-17.25 140.64-19.03 139.69-20.8 137.59-20.8L137.59-20.8Q135.49-20.8 134.54-19.03 133.59-17.25 133.59-13.8ZM156.59-13.8L156.59-13.8Q156.59-18.8 158.49-21.98 160.39-25.15 163.74-26.68 167.09-28.2 171.39-28.2L171.39-28.2Q175.69-28.2 179.04-26.68 182.39-25.15 184.29-21.98 186.19-18.8 186.19-13.8L186.19-13.8Q186.19-8.8 184.29-5.63 182.39-2.45 179.04-0.93 175.69 0.6 171.39 0.6L171.39 0.6Q167.09 0.6 163.74-0.93 160.39-2.45 158.49-5.63 156.59-8.8 156.59-13.8ZM167.39-13.8L167.39-13.8Q167.39-10.35 168.34-8.58 169.29-6.8 171.39-6.8L171.39-6.8Q173.49-6.8 174.44-8.58 175.39-10.35 175.39-13.8L175.39-13.8Q175.39-17.25 174.44-19.03 173.49-20.8 171.39-20.8L171.39-20.8Q169.29-20.8 168.34-19.03 167.39-17.25 167.39-13.8ZM209.79 0L196.59 0 187.59-26.8 187.59-27.4 198.99-27.4 204.54-5.2 202.44-5.2 207.99-27.4 219.19-27.4 219.19-26.8 209.79 0ZM221.58-1L221.58-9.2 221.98-9.2Q223.78-8.45 226.43-7.83 229.08-7.2 231.78-7.2L231.78-7.2Q232.93-7.2 233.63-7.28 234.33-7.35 234.71-7.48 235.08-7.6 235.23-7.88 235.38-8.15 235.38-8.5L235.38-8.5Q235.38-9.3 234.68-9.55 233.98-9.8 231.78-10.2L231.78-10.2 229.58-10.6Q225.93-11.3 223.66-13.08 221.38-14.85 221.38-18.6L221.38-18.6Q221.38-21.4 222.88-23.53 224.38-25.65 227.53-26.83 230.68-28 235.58-28L235.58-28Q237.98-28 239.86-27.8 241.73-27.6 243.98-27L243.98-27 243.98-18.8 243.58-18.8Q241.33-19.75 239.19-20.08 237.03-20.4 235.38-20.4L235.38-20.4Q233.58-20.4 232.58-20.13 231.58-19.85 231.58-19.1L231.58-19.1Q231.58-18.45 232.41-18.2 233.23-17.95 234.98-17.6L234.98-17.6 237.18-17.2Q239.58-16.8 241.53-15.9 243.48-15 244.63-13.35 245.78-11.7 245.78-9L245.78-9Q245.78-4.2 242.11-1.9 238.44 0.4 231.18 0.4L231.18 0.4Q228.93 0.4 226.31 0 223.68-0.4 221.58-1L221.58-1Z" opacity="1" transform="matrix(1,0,0,1,0,0)" fill="#ffffff" class="undefined-text-0" data-fill-palette-color="primary" id="text-0"></path></svg></g></svg></g><g transform="matrix(1,0,0,1,0,96.00369762851483)"><svg viewBox="0 0 232.209792 20.93738681897743" height="20.93738681897743" width="232.209792"><g transform="matrix(1,0,0,1,0,0)"><svg width="232.209792" viewBox="2.65 -38.55 434.16 39.15" height="20.93738681897743" data-palette-color="#ffffff"><path d="M2.65-18L2.65-18Q2.65-23.6 4.8-27.78 6.95-31.95 11.1-34.27 15.25-36.6 21.25-36.6L21.25-36.6Q23.8-36.6 25.8-36.18 27.8-35.75 29.2-35.05L29.2-35.05 29.2-29.75 28.75-29.75Q27.35-30.6 25.45-31.03 23.55-31.45 21.35-31.45L21.35-31.45Q17.4-31.45 14.53-29.95 11.65-28.45 10.13-25.45 8.6-22.45 8.6-18L8.6-18Q8.6-13.55 10.13-10.55 11.65-7.55 14.53-6.05 17.4-4.55 21.35-4.55L21.35-4.55Q23.55-4.55 25.45-4.98 27.35-5.4 28.75-6.25L28.75-6.25 29.2-6.25 29.2-0.95Q27.8-0.25 25.8 0.18 23.8 0.6 21.25 0.6L21.25 0.6Q15.25 0.6 11.1-1.63 6.95-3.85 4.8-8.03 2.65-12.2 2.65-18ZM39.85-31.85L39.85-31.85Q38.45-31.85 37.45-32.75 36.45-33.65 36.45-35.2L36.45-35.2Q36.45-36.75 37.45-37.65 38.45-38.55 39.85-38.55L39.85-38.55Q41.35-38.55 42.3-37.65 43.25-36.75 43.25-35.2L43.25-35.2Q43.25-33.65 42.3-32.75 41.35-31.85 39.85-31.85ZM42.65 0L37.05 0 37.05-18.7Q37.05-19.7 37.02-21.28 37-22.85 36.92-24.4 36.85-25.95 36.65-26.85L36.65-26.85 36.75-27.25 42.65-27.25 42.65 0ZM57.4 0L51.8 0 51.8-17.15Q51.8-18.15 51.77-19.73 51.75-21.3 51.67-22.85 51.6-24.4 51.4-25.3L51.4-25.3 51.5-25.7Q52.9-26.25 54.92-26.75 56.95-27.25 59.07-27.55 61.2-27.85 62.9-27.85L62.9-27.85Q65.45-27.85 67.65-27.33 69.84-26.8 71.59-25.48 73.34-24.15 74.32-21.83 75.3-19.5 75.3-15.9L75.3-15.9 75.3 0 69.7 0 69.7-15.55Q69.7-18.6 68.82-20.25 67.95-21.9 66.27-22.53 64.59-23.15 62.3-23.15L62.3-23.15Q60.75-23.15 59.05-22.8 57.35-22.45 56.05-22L56.05-22 56.95-23.55Q57.2-22.8 57.3-21.65 57.4-20.5 57.4-19.15L57.4-19.15 57.4 0ZM97.49 0.45L97.49 0.45Q93.74 0.45 90.87-0.45 87.99-1.35 86.04-3.13 84.09-4.9 83.12-7.55 82.14-10.2 82.14-13.7L82.14-13.7Q82.14-18.05 83.74-21.23 85.34-24.4 88.24-26.13 91.14-27.85 95.09-27.85L95.09-27.85Q99.54-27.85 102.29-26.03 105.04-24.2 106.27-20.93 107.49-17.65 107.29-13.35L107.29-13.35 107.24-11.85 85.89-11.85 85.89-15.95 101.64-15.95 101.64-16.35Q101.64-19.8 99.99-21.58 98.34-23.35 95.04-23.35L95.04-23.35Q93.09-23.35 91.44-22.5 89.79-21.65 88.82-19.63 87.84-17.6 87.84-14.15L87.84-14.15 87.84-13.5Q87.84-9.95 89.12-7.93 90.39-5.9 92.67-5.05 94.94-4.2 97.84-4.2L97.84-4.2Q100.34-4.2 102.17-4.67 103.99-5.15 105.04-5.75L105.04-5.75 105.49-5.75 105.49-1Q104.19-0.4 102.22 0.03 100.24 0.45 97.49 0.45ZM119.99 0L114.39 0 114.39-17.15Q114.39-18.15 114.37-19.73 114.34-21.3 114.27-22.85 114.19-24.4 113.99-25.3L113.99-25.3 114.09-25.7Q115.49-26.25 117.47-26.75 119.44-27.25 121.57-27.55 123.69-27.85 125.49-27.85L125.49-27.85Q127.74-27.85 129.84-27.33 131.94-26.8 133.59-25.48 135.24-24.15 136.22-21.83 137.19-19.5 137.19-15.9L137.19-15.9 137.19 0 131.59 0 131.59-15.55Q131.59-18.6 130.74-20.25 129.89-21.9 128.37-22.53 126.84-23.15 124.89-23.15L124.89-23.15Q123.34-23.15 121.64-22.8 119.94-22.45 118.64-22L118.64-22 119.54-23.55Q119.79-22.8 119.89-21.65 119.99-20.5 119.99-19.15L119.99-19.15 119.99 0ZM153.89 0L148.29 0 148.29-15.55Q148.29-18.6 147.49-20.25 146.69-21.9 145.09-22.53 143.49-23.15 141.19-23.15L141.19-23.15Q139.84-23.15 138.44-22.85 137.04-22.55 135.49-21.95L135.49-21.95 132.29-25.7Q134.69-26.65 137.19-27.25 139.69-27.85 141.99-27.85L141.99-27.85Q144.44-27.85 146.59-27.35 148.74-26.85 150.39-25.53 152.04-24.2 152.97-21.88 153.89-19.55 153.89-15.9L153.89-15.9 153.89 0ZM172.79 0.6L172.79 0.6Q166.79 0.6 163.74-1.5 160.69-3.6 160.69-8.05L160.69-8.05Q160.69-10.95 162.14-12.85 163.59-14.75 166.24-15.7 168.89-16.65 172.44-16.65L172.44-16.65Q174.99-16.65 176.74-16.23 178.49-15.8 179.84-15.4L179.84-15.4 179.84-11.45Q178.64-11.85 176.81-12.18 174.99-12.5 173.39-12.5L173.39-12.5Q169.69-12.5 167.86-11.53 166.04-10.55 166.04-8.05L166.04-8.05Q166.04-5.7 167.79-4.67 169.54-3.65 172.84-3.65L172.84-3.65Q174.74-3.65 176.49-3.98 178.24-4.3 179.74-4.95L179.74-4.95 178.79-3.3Q178.64-3.8 178.54-4.35 178.44-4.9 178.36-5.48 178.29-6.05 178.26-6.75 178.24-7.45 178.24-8.35L178.24-8.35 178.24-16.45Q178.24-19.35 177.41-20.83 176.59-22.3 174.94-22.78 173.29-23.25 170.79-23.25L170.79-23.25Q168.79-23.25 166.79-22.78 164.79-22.3 163.59-21.75L163.59-21.75 163.14-21.75 163.14-26.45Q164.94-27.15 167.16-27.5 169.39-27.85 171.49-27.85L171.49-27.85Q174.14-27.85 176.36-27.4 178.59-26.95 180.26-25.73 181.94-24.5 182.86-22.28 183.79-20.05 183.79-16.45L183.79-16.45 183.79-10Q183.79-9 183.81-7.4 183.84-5.8 183.94-4.28 184.04-2.75 184.24-1.85L184.24-1.85 184.09-1.45Q182.44-0.85 180.44-0.38 178.44 0.1 176.44 0.35 174.44 0.6 172.79 0.6ZM202.53 0.4L202.53 0.4Q199.03 0.4 196.78-0.7 194.53-1.8 193.44-3.88 192.34-5.95 192.34-8.95L192.34-8.95 192.34-34.5 197.94-34.5 197.94-9.45Q197.94-6.7 199.16-5.5 200.38-4.3 203.03-4.3L203.03-4.3Q204.03-4.3 205.01-4.53 205.99-4.75 206.69-5.05L206.69-5.05 207.13-5.05 207.13-0.45Q206.28-0.1 205.13 0.15 203.99 0.4 202.53 0.4ZM205.59-22.55L188.09-22.55 188.09-27.25 205.59-27.25 205.59-22.55ZM215.48-31.85L215.48-31.85Q214.08-31.85 213.08-32.75 212.08-33.65 212.08-35.2L212.08-35.2Q212.08-36.75 213.08-37.65 214.08-38.55 215.48-38.55L215.48-38.55Q216.98-38.55 217.93-37.65 218.88-36.75 218.88-35.2L218.88-35.2Q218.88-33.65 217.93-32.75 216.98-31.85 215.48-31.85ZM218.28 0L212.68 0 212.68-18.7Q212.68-19.7 212.66-21.28 212.63-22.85 212.56-24.4 212.48-25.95 212.28-26.85L212.28-26.85 212.38-27.25 218.28-27.25 218.28 0ZM225.33-13.7L225.33-13.7Q225.33-18.3 227.18-21.45 229.03-24.6 232.38-26.23 235.73-27.85 240.23-27.85L240.23-27.85Q243.88-27.85 246.38-26.8L246.38-26.8 246.38-22.05 245.98-22.05Q244.98-22.55 243.58-22.85 242.18-23.15 240.48-23.15L240.48-23.15Q236.13-23.15 233.58-20.78 231.03-18.4 231.03-13.7L231.03-13.7Q231.03-9.05 233.58-6.65 236.13-4.25 240.48-4.25L240.48-4.25Q242.18-4.25 243.58-4.6 244.98-4.95 245.98-5.4L245.98-5.4 246.38-5.4 246.38-0.6Q243.88 0.45 240.23 0.45L240.23 0.45Q235.63 0.45 232.28-1.2 228.93-2.85 227.13-6 225.33-9.15 225.33-13.7ZM261.47 0L261.47-4.95 261.92-4.95Q262.52-4.7 263.88-4.53 265.22-4.35 266.27-4.35L266.27-4.35Q269.22-4.35 270.77-5.85 272.32-7.35 272.32-10.15L272.32-10.15 272.32-36 278.13-36 278.13-10.55Q278.13-7 276.75-4.5 275.38-2 272.8-0.7 270.22 0.6 266.57 0.6L266.57 0.6Q265.22 0.6 263.82 0.4 262.42 0.2 261.47 0L261.47 0ZM284.37-13.7L284.37-13.7Q284.37-18.25 286-21.4 287.62-24.55 290.55-26.2 293.47-27.85 297.27-27.85L297.27-27.85Q301.07-27.85 303.97-26.2 306.87-24.55 308.5-21.4 310.12-18.25 310.12-13.7L310.12-13.7Q310.12-9.15 308.5-6 306.87-2.85 303.97-1.2 301.07 0.45 297.27 0.45L297.27 0.45Q293.37 0.45 290.47-1.2 287.57-2.85 285.97-6 284.37-9.15 284.37-13.7ZM290.07-13.7L290.07-13.7Q290.07-9 291.92-6.58 293.77-4.15 297.27-4.15L297.27-4.15Q300.72-4.15 302.57-6.58 304.42-9 304.42-13.7L304.42-13.7Q304.42-18.5 302.57-20.9 300.72-23.3 297.27-23.3L297.27-23.3Q293.77-23.3 291.92-20.9 290.07-18.5 290.07-13.7ZM329.42 0.6L329.42 0.6Q326.82 0.6 324.49 0.08 322.17-0.45 320.42-1.8 318.67-3.15 317.67-5.48 316.67-7.8 316.67-11.35L316.67-11.35 316.67-18.7Q316.67-19.7 316.62-21.28 316.57-22.85 316.49-24.4 316.42-25.95 316.22-26.85L316.22-26.85 316.32-27.25 322.27-27.25 322.27-11.75Q322.27-8.65 323.17-7 324.07-5.35 325.82-4.73 327.57-4.1 329.97-4.1L329.97-4.1Q331.52-4.1 333.09-4.4 334.67-4.7 335.87-5L335.87-5 334.92-3.65Q334.72-4.35 334.64-5.45 334.57-6.55 334.57-7.8L334.57-7.8 334.57-18.7Q334.57-19.7 334.52-21.28 334.47-22.85 334.39-24.4 334.32-25.95 334.12-26.85L334.12-26.85 334.22-27.25 340.17-27.25 340.17-9.95Q340.17-8.95 340.19-7.38 340.22-5.8 340.29-4.25 340.37-2.7 340.57-1.8L340.57-1.8 340.47-1.4Q339.07-0.85 337.07-0.4 335.07 0.05 333.02 0.33 330.97 0.6 329.42 0.6ZM354.87 0L349.27 0 349.27-17.3Q349.27-18.3 349.24-19.9 349.22-21.5 349.14-23.03 349.07-24.55 348.87-25.45L348.87-25.45 348.97-25.85Q350.32-26.35 352.22-26.73 354.12-27.1 356.12-27.33 358.12-27.55 359.72-27.55L359.72-27.55Q360.82-27.55 361.69-27.5 362.57-27.45 363.27-27.3L363.27-27.3 363.27-22.6 362.87-22.6Q362.17-22.75 361.24-22.8 360.32-22.85 359.52-22.85L359.52-22.85Q357.97-22.85 356.32-22.6 354.67-22.35 353.47-22.05L353.47-22.05 354.47-23.45Q354.87-21.95 354.87-19.15L354.87-19.15 354.87 0ZM374.66 0L369.06 0 369.06-17.15Q369.06-18.15 369.04-19.73 369.01-21.3 368.94-22.85 368.87-24.4 368.66-25.3L368.66-25.3 368.76-25.7Q370.16-26.25 372.19-26.75 374.21-27.25 376.34-27.55 378.46-27.85 380.16-27.85L380.16-27.85Q382.71-27.85 384.91-27.33 387.12-26.8 388.87-25.48 390.62-24.15 391.59-21.83 392.56-19.5 392.56-15.9L392.56-15.9 392.56 0 386.96 0 386.96-15.55Q386.96-18.6 386.09-20.25 385.21-21.9 383.54-22.53 381.87-23.15 379.56-23.15L379.56-23.15Q378.01-23.15 376.31-22.8 374.62-22.45 373.31-22L373.31-22 374.21-23.55Q374.46-22.8 374.56-21.65 374.66-20.5 374.66-19.15L374.66-19.15 374.66 0ZM411.51 0.6L411.51 0.6Q405.51 0.6 402.46-1.5 399.41-3.6 399.41-8.05L399.41-8.05Q399.41-10.95 400.86-12.85 402.31-14.75 404.96-15.7 407.61-16.65 411.16-16.65L411.16-16.65Q413.71-16.65 415.46-16.23 417.21-15.8 418.56-15.4L418.56-15.4 418.56-11.45Q417.36-11.85 415.54-12.18 413.71-12.5 412.11-12.5L412.11-12.5Q408.41-12.5 406.59-11.53 404.76-10.55 404.76-8.05L404.76-8.05Q404.76-5.7 406.51-4.67 408.26-3.65 411.56-3.65L411.56-3.65Q413.46-3.65 415.21-3.98 416.96-4.3 418.46-4.95L418.46-4.95 417.51-3.3Q417.36-3.8 417.26-4.35 417.16-4.9 417.09-5.48 417.01-6.05 416.99-6.75 416.96-7.45 416.96-8.35L416.96-8.35 416.96-16.45Q416.96-19.35 416.14-20.83 415.31-22.3 413.66-22.78 412.01-23.25 409.51-23.25L409.51-23.25Q407.51-23.25 405.51-22.78 403.51-22.3 402.31-21.75L402.31-21.75 401.86-21.75 401.86-26.45Q403.66-27.15 405.89-27.5 408.11-27.85 410.21-27.85L410.21-27.85Q412.86-27.85 415.09-27.4 417.31-26.95 418.99-25.73 420.66-24.5 421.59-22.28 422.51-20.05 422.51-16.45L422.51-16.45 422.51-10Q422.51-9 422.54-7.4 422.56-5.8 422.66-4.28 422.76-2.75 422.96-1.85L422.96-1.85 422.81-1.45Q421.16-0.85 419.16-0.38 417.16 0.1 415.16 0.35 413.16 0.6 411.51 0.6ZM436.81 0L431.21 0 431.21-29.45Q431.21-30.45 431.18-32.05 431.16-33.65 431.08-35.18 431.01-36.7 430.81-37.6L430.81-37.6 430.91-38 436.81-38 436.81 0Z" opacity="1" transform="matrix(1,0,0,1,0,0)" fill="#ffffff" class="undefined-text-1" data-fill-palette-color="secondary" id="text-1"></path></svg></g></svg></g></svg></g></svg></g><g><svg viewBox="0 0 197.89456898395207 161.6125787064343" height="161.6125787064343" width="197.89456898395207"><g><svg xmlns="http://www.w3.org/2000/svg" xmlnsXlink="http://www.w3.org/1999/xlink" version="1.1" x="0" y="0" viewBox="0 0 100 81.666" enable-background="new 0 0 100 100" xmlSpace="preserve" height="161.6125787064343" width="197.89456898395207" class="icon-icon-0" data-fill-palette-color="accent" id="icon-0"><g fill="#ffffff" data-fill-palette-color="accent"><path d="M50.831 52.354c9.815 0 17.763-7.952 17.763-17.762 0-9.806-7.947-17.752-17.763-17.752-9.8 0-17.742 7.946-17.742 17.752C33.089 44.402 41.031 52.354 50.831 52.354zM42.801 23.884c0-1.141 0.755-1.619 1.781-1.026L63.096 33.55c1.021 0.587 1.021 1.509 0 2.103L44.582 46.328c-1.025 0.548-1.781 0.12-1.781-1.071V23.884z" fill="#ffffff" data-fill-palette-color="accent"></path><path d="M0 0v65.371h100V0H0zM95.756 61.785H4.244V3.587h91.512V61.785z" fill="#ffffff" data-fill-palette-color="accent"></path></g><path d="M94 73.961H27.763c-0.545-3.069-3.226-5.408-6.449-5.408-3.221 0-5.903 2.339-6.449 5.408H4.333v2.298h10.532c0.545 3.069 3.227 5.407 6.449 5.407 3.222 0 5.904-2.338 6.449-5.407H94V73.961z" fill="#ffffff" data-fill-palette-color="accent"></path></svg></g></svg></g></svg></g></svg></g><defs></defs></svg><rect width="395.52" height="104.48874815933095" fill="none" stroke="none" visibility="hidden"></rect></g></svg></g></svg>